G04 #@! TF.GenerationSoftware,KiCad,Pcbnew,8.0.6*
G04 #@! TF.CreationDate,2025-12-03T00:04:18-05:00*
G04 #@! TF.ProjectId,dead_reckoning_shield,64656164-5f72-4656-936b-6f6e696e675f,rev?*
G04 #@! TF.SameCoordinates,Original*
G04 #@! TF.FileFunction,Legend,Top*
G04 #@! TF.FilePolarity,Positive*
%FSLAX46Y46*%
G04 Gerber Fmt 4.6, Leading zero omitted, Abs format (unit mm)*
G04 Created by KiCad (PCBNEW 8.0.6) date 2025-12-03 00:04:18*
%MOMM*%
%LPD*%
G01*
G04 APERTURE LIST*
G04 Aperture macros list*
%AMRoundRect*
0 Rectangle with rounded corners*
0 $1 Rounding radius*
0 $2 $3 $4 $5 $6 $7 $8 $9 X,Y pos of 4 corners*
0 Add a 4 corners polygon primitive as box body*
4,1,4,$2,$3,$4,$5,$6,$7,$8,$9,$2,$3,0*
0 Add four circle primitives for the rounded corners*
1,1,$1+$1,$2,$3*
1,1,$1+$1,$4,$5*
1,1,$1+$1,$6,$7*
1,1,$1+$1,$8,$9*
0 Add four rect primitives between the rounded corners*
20,1,$1+$1,$2,$3,$4,$5,0*
20,1,$1+$1,$4,$5,$6,$7,0*
20,1,$1+$1,$6,$7,$8,$9,0*
20,1,$1+$1,$8,$9,$2,$3,0*%
G04 Aperture macros list end*
%ADD10C,0.100000*%
%ADD11C,0.150000*%
%ADD12C,0.127000*%
%ADD13C,0.200000*%
%ADD14C,0.120000*%
%ADD15C,1.600000*%
%ADD16RoundRect,0.102000X-0.749000X-0.749000X0.749000X-0.749000X0.749000X0.749000X-0.749000X0.749000X0*%
%ADD17C,1.702000*%
%ADD18RoundRect,0.237500X-0.250000X-0.237500X0.250000X-0.237500X0.250000X0.237500X-0.250000X0.237500X0*%
%ADD19O,1.727200X1.727200*%
%ADD20R,1.727200X1.727200*%
%ADD21RoundRect,0.250000X-0.337500X-0.475000X0.337500X-0.475000X0.337500X0.475000X-0.337500X0.475000X0*%
%ADD22C,1.000000*%
%ADD23RoundRect,0.237500X-0.300000X-0.237500X0.300000X-0.237500X0.300000X0.237500X-0.300000X0.237500X0*%
%ADD24RoundRect,0.237500X0.250000X0.237500X-0.250000X0.237500X-0.250000X-0.237500X0.250000X-0.237500X0*%
G04 APERTURE END LIST*
D10*
X180756265Y-80324800D02*
X180899122Y-80372419D01*
X180899122Y-80372419D02*
X181137217Y-80372419D01*
X181137217Y-80372419D02*
X181232455Y-80324800D01*
X181232455Y-80324800D02*
X181280074Y-80277180D01*
X181280074Y-80277180D02*
X181327693Y-80181942D01*
X181327693Y-80181942D02*
X181327693Y-80086704D01*
X181327693Y-80086704D02*
X181280074Y-79991466D01*
X181280074Y-79991466D02*
X181232455Y-79943847D01*
X181232455Y-79943847D02*
X181137217Y-79896228D01*
X181137217Y-79896228D02*
X180946741Y-79848609D01*
X180946741Y-79848609D02*
X180851503Y-79800990D01*
X180851503Y-79800990D02*
X180803884Y-79753371D01*
X180803884Y-79753371D02*
X180756265Y-79658133D01*
X180756265Y-79658133D02*
X180756265Y-79562895D01*
X180756265Y-79562895D02*
X180803884Y-79467657D01*
X180803884Y-79467657D02*
X180851503Y-79420038D01*
X180851503Y-79420038D02*
X180946741Y-79372419D01*
X180946741Y-79372419D02*
X181184836Y-79372419D01*
X181184836Y-79372419D02*
X181327693Y-79420038D01*
X181613408Y-79372419D02*
X182184836Y-79372419D01*
X181899122Y-80372419D02*
X181899122Y-79372419D01*
X182470551Y-80086704D02*
X182946741Y-80086704D01*
X182375313Y-80372419D02*
X182708646Y-79372419D01*
X182708646Y-79372419D02*
X183041979Y-80372419D01*
X183946741Y-80372419D02*
X183613408Y-79896228D01*
X183375313Y-80372419D02*
X183375313Y-79372419D01*
X183375313Y-79372419D02*
X183756265Y-79372419D01*
X183756265Y-79372419D02*
X183851503Y-79420038D01*
X183851503Y-79420038D02*
X183899122Y-79467657D01*
X183899122Y-79467657D02*
X183946741Y-79562895D01*
X183946741Y-79562895D02*
X183946741Y-79705752D01*
X183946741Y-79705752D02*
X183899122Y-79800990D01*
X183899122Y-79800990D02*
X183851503Y-79848609D01*
X183851503Y-79848609D02*
X183756265Y-79896228D01*
X183756265Y-79896228D02*
X183375313Y-79896228D01*
X184232456Y-79372419D02*
X184803884Y-79372419D01*
X184518170Y-80372419D02*
X184518170Y-79372419D01*
X185851503Y-79324800D02*
X184994361Y-80610514D01*
X186137218Y-80324800D02*
X186280075Y-80372419D01*
X186280075Y-80372419D02*
X186518170Y-80372419D01*
X186518170Y-80372419D02*
X186613408Y-80324800D01*
X186613408Y-80324800D02*
X186661027Y-80277180D01*
X186661027Y-80277180D02*
X186708646Y-80181942D01*
X186708646Y-80181942D02*
X186708646Y-80086704D01*
X186708646Y-80086704D02*
X186661027Y-79991466D01*
X186661027Y-79991466D02*
X186613408Y-79943847D01*
X186613408Y-79943847D02*
X186518170Y-79896228D01*
X186518170Y-79896228D02*
X186327694Y-79848609D01*
X186327694Y-79848609D02*
X186232456Y-79800990D01*
X186232456Y-79800990D02*
X186184837Y-79753371D01*
X186184837Y-79753371D02*
X186137218Y-79658133D01*
X186137218Y-79658133D02*
X186137218Y-79562895D01*
X186137218Y-79562895D02*
X186184837Y-79467657D01*
X186184837Y-79467657D02*
X186232456Y-79420038D01*
X186232456Y-79420038D02*
X186327694Y-79372419D01*
X186327694Y-79372419D02*
X186565789Y-79372419D01*
X186565789Y-79372419D02*
X186708646Y-79420038D01*
X186994361Y-79372419D02*
X187565789Y-79372419D01*
X187280075Y-80372419D02*
X187280075Y-79372419D01*
X188089599Y-79372419D02*
X188280075Y-79372419D01*
X188280075Y-79372419D02*
X188375313Y-79420038D01*
X188375313Y-79420038D02*
X188470551Y-79515276D01*
X188470551Y-79515276D02*
X188518170Y-79705752D01*
X188518170Y-79705752D02*
X188518170Y-80039085D01*
X188518170Y-80039085D02*
X188470551Y-80229561D01*
X188470551Y-80229561D02*
X188375313Y-80324800D01*
X188375313Y-80324800D02*
X188280075Y-80372419D01*
X188280075Y-80372419D02*
X188089599Y-80372419D01*
X188089599Y-80372419D02*
X187994361Y-80324800D01*
X187994361Y-80324800D02*
X187899123Y-80229561D01*
X187899123Y-80229561D02*
X187851504Y-80039085D01*
X187851504Y-80039085D02*
X187851504Y-79705752D01*
X187851504Y-79705752D02*
X187899123Y-79515276D01*
X187899123Y-79515276D02*
X187994361Y-79420038D01*
X187994361Y-79420038D02*
X188089599Y-79372419D01*
X188946742Y-80372419D02*
X188946742Y-79372419D01*
X188946742Y-79372419D02*
X189327694Y-79372419D01*
X189327694Y-79372419D02*
X189422932Y-79420038D01*
X189422932Y-79420038D02*
X189470551Y-79467657D01*
X189470551Y-79467657D02*
X189518170Y-79562895D01*
X189518170Y-79562895D02*
X189518170Y-79705752D01*
X189518170Y-79705752D02*
X189470551Y-79800990D01*
X189470551Y-79800990D02*
X189422932Y-79848609D01*
X189422932Y-79848609D02*
X189327694Y-79896228D01*
X189327694Y-79896228D02*
X188946742Y-79896228D01*
X214530074Y-80372419D02*
X214053884Y-80372419D01*
X214053884Y-80372419D02*
X214053884Y-79372419D01*
X214815789Y-80086704D02*
X215291979Y-80086704D01*
X214720551Y-80372419D02*
X215053884Y-79372419D01*
X215053884Y-79372419D02*
X215387217Y-80372419D01*
X215720551Y-80372419D02*
X215720551Y-79372419D01*
X215720551Y-79372419D02*
X216101503Y-79372419D01*
X216101503Y-79372419D02*
X216196741Y-79420038D01*
X216196741Y-79420038D02*
X216244360Y-79467657D01*
X216244360Y-79467657D02*
X216291979Y-79562895D01*
X216291979Y-79562895D02*
X216291979Y-79705752D01*
X216291979Y-79705752D02*
X216244360Y-79800990D01*
X216244360Y-79800990D02*
X216196741Y-79848609D01*
X216196741Y-79848609D02*
X216101503Y-79896228D01*
X216101503Y-79896228D02*
X215720551Y-79896228D01*
X196875312Y-80277180D02*
X196827693Y-80324800D01*
X196827693Y-80324800D02*
X196684836Y-80372419D01*
X196684836Y-80372419D02*
X196589598Y-80372419D01*
X196589598Y-80372419D02*
X196446741Y-80324800D01*
X196446741Y-80324800D02*
X196351503Y-80229561D01*
X196351503Y-80229561D02*
X196303884Y-80134323D01*
X196303884Y-80134323D02*
X196256265Y-79943847D01*
X196256265Y-79943847D02*
X196256265Y-79800990D01*
X196256265Y-79800990D02*
X196303884Y-79610514D01*
X196303884Y-79610514D02*
X196351503Y-79515276D01*
X196351503Y-79515276D02*
X196446741Y-79420038D01*
X196446741Y-79420038D02*
X196589598Y-79372419D01*
X196589598Y-79372419D02*
X196684836Y-79372419D01*
X196684836Y-79372419D02*
X196827693Y-79420038D01*
X196827693Y-79420038D02*
X196875312Y-79467657D01*
X197256265Y-80086704D02*
X197732455Y-80086704D01*
X197161027Y-80372419D02*
X197494360Y-79372419D01*
X197494360Y-79372419D02*
X197827693Y-80372419D01*
X198637217Y-80372419D02*
X198161027Y-80372419D01*
X198161027Y-80372419D02*
X198161027Y-79372419D01*
X198970551Y-80372419D02*
X198970551Y-79372419D01*
X199780074Y-79848609D02*
X199922931Y-79896228D01*
X199922931Y-79896228D02*
X199970550Y-79943847D01*
X199970550Y-79943847D02*
X200018169Y-80039085D01*
X200018169Y-80039085D02*
X200018169Y-80181942D01*
X200018169Y-80181942D02*
X199970550Y-80277180D01*
X199970550Y-80277180D02*
X199922931Y-80324800D01*
X199922931Y-80324800D02*
X199827693Y-80372419D01*
X199827693Y-80372419D02*
X199446741Y-80372419D01*
X199446741Y-80372419D02*
X199446741Y-79372419D01*
X199446741Y-79372419D02*
X199780074Y-79372419D01*
X199780074Y-79372419D02*
X199875312Y-79420038D01*
X199875312Y-79420038D02*
X199922931Y-79467657D01*
X199922931Y-79467657D02*
X199970550Y-79562895D01*
X199970550Y-79562895D02*
X199970550Y-79658133D01*
X199970550Y-79658133D02*
X199922931Y-79753371D01*
X199922931Y-79753371D02*
X199875312Y-79800990D01*
X199875312Y-79800990D02*
X199780074Y-79848609D01*
X199780074Y-79848609D02*
X199446741Y-79848609D01*
X201018169Y-80372419D02*
X200684836Y-79896228D01*
X200446741Y-80372419D02*
X200446741Y-79372419D01*
X200446741Y-79372419D02*
X200827693Y-79372419D01*
X200827693Y-79372419D02*
X200922931Y-79420038D01*
X200922931Y-79420038D02*
X200970550Y-79467657D01*
X200970550Y-79467657D02*
X201018169Y-79562895D01*
X201018169Y-79562895D02*
X201018169Y-79705752D01*
X201018169Y-79705752D02*
X200970550Y-79800990D01*
X200970550Y-79800990D02*
X200922931Y-79848609D01*
X200922931Y-79848609D02*
X200827693Y-79896228D01*
X200827693Y-79896228D02*
X200446741Y-79896228D01*
X201399122Y-80086704D02*
X201875312Y-80086704D01*
X201303884Y-80372419D02*
X201637217Y-79372419D01*
X201637217Y-79372419D02*
X201970550Y-80372419D01*
X202161027Y-79372419D02*
X202732455Y-79372419D01*
X202446741Y-80372419D02*
X202446741Y-79372419D01*
X203065789Y-79848609D02*
X203399122Y-79848609D01*
X203541979Y-80372419D02*
X203065789Y-80372419D01*
X203065789Y-80372419D02*
X203065789Y-79372419D01*
X203065789Y-79372419D02*
X203541979Y-79372419D01*
X208957419Y-130761904D02*
X209766942Y-130761904D01*
X209766942Y-130761904D02*
X209862180Y-130714285D01*
X209862180Y-130714285D02*
X209909800Y-130666666D01*
X209909800Y-130666666D02*
X209957419Y-130571428D01*
X209957419Y-130571428D02*
X209957419Y-130380952D01*
X209957419Y-130380952D02*
X209909800Y-130285714D01*
X209909800Y-130285714D02*
X209862180Y-130238095D01*
X209862180Y-130238095D02*
X209766942Y-130190476D01*
X209766942Y-130190476D02*
X208957419Y-130190476D01*
X209957419Y-129190476D02*
X209957419Y-129761904D01*
X209957419Y-129476190D02*
X208957419Y-129476190D01*
X208957419Y-129476190D02*
X209100276Y-129571428D01*
X209100276Y-129571428D02*
X209195514Y-129666666D01*
X209195514Y-129666666D02*
X209243133Y-129761904D01*
D11*
X220333333Y-94524819D02*
X220000000Y-94048628D01*
X219761905Y-94524819D02*
X219761905Y-93524819D01*
X219761905Y-93524819D02*
X220142857Y-93524819D01*
X220142857Y-93524819D02*
X220238095Y-93572438D01*
X220238095Y-93572438D02*
X220285714Y-93620057D01*
X220285714Y-93620057D02*
X220333333Y-93715295D01*
X220333333Y-93715295D02*
X220333333Y-93858152D01*
X220333333Y-93858152D02*
X220285714Y-93953390D01*
X220285714Y-93953390D02*
X220238095Y-94001009D01*
X220238095Y-94001009D02*
X220142857Y-94048628D01*
X220142857Y-94048628D02*
X219761905Y-94048628D01*
X221238095Y-93524819D02*
X220761905Y-93524819D01*
X220761905Y-93524819D02*
X220714286Y-94001009D01*
X220714286Y-94001009D02*
X220761905Y-93953390D01*
X220761905Y-93953390D02*
X220857143Y-93905771D01*
X220857143Y-93905771D02*
X221095238Y-93905771D01*
X221095238Y-93905771D02*
X221190476Y-93953390D01*
X221190476Y-93953390D02*
X221238095Y-94001009D01*
X221238095Y-94001009D02*
X221285714Y-94096247D01*
X221285714Y-94096247D02*
X221285714Y-94334342D01*
X221285714Y-94334342D02*
X221238095Y-94429580D01*
X221238095Y-94429580D02*
X221190476Y-94477200D01*
X221190476Y-94477200D02*
X221095238Y-94524819D01*
X221095238Y-94524819D02*
X220857143Y-94524819D01*
X220857143Y-94524819D02*
X220761905Y-94477200D01*
X220761905Y-94477200D02*
X220714286Y-94429580D01*
X181833333Y-115179580D02*
X181785714Y-115227200D01*
X181785714Y-115227200D02*
X181642857Y-115274819D01*
X181642857Y-115274819D02*
X181547619Y-115274819D01*
X181547619Y-115274819D02*
X181404762Y-115227200D01*
X181404762Y-115227200D02*
X181309524Y-115131961D01*
X181309524Y-115131961D02*
X181261905Y-115036723D01*
X181261905Y-115036723D02*
X181214286Y-114846247D01*
X181214286Y-114846247D02*
X181214286Y-114703390D01*
X181214286Y-114703390D02*
X181261905Y-114512914D01*
X181261905Y-114512914D02*
X181309524Y-114417676D01*
X181309524Y-114417676D02*
X181404762Y-114322438D01*
X181404762Y-114322438D02*
X181547619Y-114274819D01*
X181547619Y-114274819D02*
X181642857Y-114274819D01*
X181642857Y-114274819D02*
X181785714Y-114322438D01*
X181785714Y-114322438D02*
X181833333Y-114370057D01*
X182166667Y-114274819D02*
X182833333Y-114274819D01*
X182833333Y-114274819D02*
X182404762Y-115274819D01*
X177833333Y-74524819D02*
X177500000Y-74048628D01*
X177261905Y-74524819D02*
X177261905Y-73524819D01*
X177261905Y-73524819D02*
X177642857Y-73524819D01*
X177642857Y-73524819D02*
X177738095Y-73572438D01*
X177738095Y-73572438D02*
X177785714Y-73620057D01*
X177785714Y-73620057D02*
X177833333Y-73715295D01*
X177833333Y-73715295D02*
X177833333Y-73858152D01*
X177833333Y-73858152D02*
X177785714Y-73953390D01*
X177785714Y-73953390D02*
X177738095Y-74001009D01*
X177738095Y-74001009D02*
X177642857Y-74048628D01*
X177642857Y-74048628D02*
X177261905Y-74048628D01*
X178214286Y-73620057D02*
X178261905Y-73572438D01*
X178261905Y-73572438D02*
X178357143Y-73524819D01*
X178357143Y-73524819D02*
X178595238Y-73524819D01*
X178595238Y-73524819D02*
X178690476Y-73572438D01*
X178690476Y-73572438D02*
X178738095Y-73620057D01*
X178738095Y-73620057D02*
X178785714Y-73715295D01*
X178785714Y-73715295D02*
X178785714Y-73810533D01*
X178785714Y-73810533D02*
X178738095Y-73953390D01*
X178738095Y-73953390D02*
X178166667Y-74524819D01*
X178166667Y-74524819D02*
X178785714Y-74524819D01*
D10*
X188957419Y-130761904D02*
X189766942Y-130761904D01*
X189766942Y-130761904D02*
X189862180Y-130714285D01*
X189862180Y-130714285D02*
X189909800Y-130666666D01*
X189909800Y-130666666D02*
X189957419Y-130571428D01*
X189957419Y-130571428D02*
X189957419Y-130380952D01*
X189957419Y-130380952D02*
X189909800Y-130285714D01*
X189909800Y-130285714D02*
X189862180Y-130238095D01*
X189862180Y-130238095D02*
X189766942Y-130190476D01*
X189766942Y-130190476D02*
X188957419Y-130190476D01*
X188957419Y-129809523D02*
X188957419Y-129190476D01*
X188957419Y-129190476D02*
X189338371Y-129523809D01*
X189338371Y-129523809D02*
X189338371Y-129380952D01*
X189338371Y-129380952D02*
X189385990Y-129285714D01*
X189385990Y-129285714D02*
X189433609Y-129238095D01*
X189433609Y-129238095D02*
X189528847Y-129190476D01*
X189528847Y-129190476D02*
X189766942Y-129190476D01*
X189766942Y-129190476D02*
X189862180Y-129238095D01*
X189862180Y-129238095D02*
X189909800Y-129285714D01*
X189909800Y-129285714D02*
X189957419Y-129380952D01*
X189957419Y-129380952D02*
X189957419Y-129666666D01*
X189957419Y-129666666D02*
X189909800Y-129761904D01*
X189909800Y-129761904D02*
X189862180Y-129809523D01*
D11*
X207333333Y-74524819D02*
X207000000Y-74048628D01*
X206761905Y-74524819D02*
X206761905Y-73524819D01*
X206761905Y-73524819D02*
X207142857Y-73524819D01*
X207142857Y-73524819D02*
X207238095Y-73572438D01*
X207238095Y-73572438D02*
X207285714Y-73620057D01*
X207285714Y-73620057D02*
X207333333Y-73715295D01*
X207333333Y-73715295D02*
X207333333Y-73858152D01*
X207333333Y-73858152D02*
X207285714Y-73953390D01*
X207285714Y-73953390D02*
X207238095Y-74001009D01*
X207238095Y-74001009D02*
X207142857Y-74048628D01*
X207142857Y-74048628D02*
X206761905Y-74048628D01*
X207809524Y-74524819D02*
X208000000Y-74524819D01*
X208000000Y-74524819D02*
X208095238Y-74477200D01*
X208095238Y-74477200D02*
X208142857Y-74429580D01*
X208142857Y-74429580D02*
X208238095Y-74286723D01*
X208238095Y-74286723D02*
X208285714Y-74096247D01*
X208285714Y-74096247D02*
X208285714Y-73715295D01*
X208285714Y-73715295D02*
X208238095Y-73620057D01*
X208238095Y-73620057D02*
X208190476Y-73572438D01*
X208190476Y-73572438D02*
X208095238Y-73524819D01*
X208095238Y-73524819D02*
X207904762Y-73524819D01*
X207904762Y-73524819D02*
X207809524Y-73572438D01*
X207809524Y-73572438D02*
X207761905Y-73620057D01*
X207761905Y-73620057D02*
X207714286Y-73715295D01*
X207714286Y-73715295D02*
X207714286Y-73953390D01*
X207714286Y-73953390D02*
X207761905Y-74048628D01*
X207761905Y-74048628D02*
X207809524Y-74096247D01*
X207809524Y-74096247D02*
X207904762Y-74143866D01*
X207904762Y-74143866D02*
X208095238Y-74143866D01*
X208095238Y-74143866D02*
X208190476Y-74096247D01*
X208190476Y-74096247D02*
X208238095Y-74048628D01*
X208238095Y-74048628D02*
X208285714Y-73953390D01*
X207333333Y-78929580D02*
X207285714Y-78977200D01*
X207285714Y-78977200D02*
X207142857Y-79024819D01*
X207142857Y-79024819D02*
X207047619Y-79024819D01*
X207047619Y-79024819D02*
X206904762Y-78977200D01*
X206904762Y-78977200D02*
X206809524Y-78881961D01*
X206809524Y-78881961D02*
X206761905Y-78786723D01*
X206761905Y-78786723D02*
X206714286Y-78596247D01*
X206714286Y-78596247D02*
X206714286Y-78453390D01*
X206714286Y-78453390D02*
X206761905Y-78262914D01*
X206761905Y-78262914D02*
X206809524Y-78167676D01*
X206809524Y-78167676D02*
X206904762Y-78072438D01*
X206904762Y-78072438D02*
X207047619Y-78024819D01*
X207047619Y-78024819D02*
X207142857Y-78024819D01*
X207142857Y-78024819D02*
X207285714Y-78072438D01*
X207285714Y-78072438D02*
X207333333Y-78120057D01*
X207904762Y-78453390D02*
X207809524Y-78405771D01*
X207809524Y-78405771D02*
X207761905Y-78358152D01*
X207761905Y-78358152D02*
X207714286Y-78262914D01*
X207714286Y-78262914D02*
X207714286Y-78215295D01*
X207714286Y-78215295D02*
X207761905Y-78120057D01*
X207761905Y-78120057D02*
X207809524Y-78072438D01*
X207809524Y-78072438D02*
X207904762Y-78024819D01*
X207904762Y-78024819D02*
X208095238Y-78024819D01*
X208095238Y-78024819D02*
X208190476Y-78072438D01*
X208190476Y-78072438D02*
X208238095Y-78120057D01*
X208238095Y-78120057D02*
X208285714Y-78215295D01*
X208285714Y-78215295D02*
X208285714Y-78262914D01*
X208285714Y-78262914D02*
X208238095Y-78358152D01*
X208238095Y-78358152D02*
X208190476Y-78405771D01*
X208190476Y-78405771D02*
X208095238Y-78453390D01*
X208095238Y-78453390D02*
X207904762Y-78453390D01*
X207904762Y-78453390D02*
X207809524Y-78501009D01*
X207809524Y-78501009D02*
X207761905Y-78548628D01*
X207761905Y-78548628D02*
X207714286Y-78643866D01*
X207714286Y-78643866D02*
X207714286Y-78834342D01*
X207714286Y-78834342D02*
X207761905Y-78929580D01*
X207761905Y-78929580D02*
X207809524Y-78977200D01*
X207809524Y-78977200D02*
X207904762Y-79024819D01*
X207904762Y-79024819D02*
X208095238Y-79024819D01*
X208095238Y-79024819D02*
X208190476Y-78977200D01*
X208190476Y-78977200D02*
X208238095Y-78929580D01*
X208238095Y-78929580D02*
X208285714Y-78834342D01*
X208285714Y-78834342D02*
X208285714Y-78643866D01*
X208285714Y-78643866D02*
X208238095Y-78548628D01*
X208238095Y-78548628D02*
X208190476Y-78501009D01*
X208190476Y-78501009D02*
X208095238Y-78453390D01*
X192333333Y-74524819D02*
X192000000Y-74048628D01*
X191761905Y-74524819D02*
X191761905Y-73524819D01*
X191761905Y-73524819D02*
X192142857Y-73524819D01*
X192142857Y-73524819D02*
X192238095Y-73572438D01*
X192238095Y-73572438D02*
X192285714Y-73620057D01*
X192285714Y-73620057D02*
X192333333Y-73715295D01*
X192333333Y-73715295D02*
X192333333Y-73858152D01*
X192333333Y-73858152D02*
X192285714Y-73953390D01*
X192285714Y-73953390D02*
X192238095Y-74001009D01*
X192238095Y-74001009D02*
X192142857Y-74048628D01*
X192142857Y-74048628D02*
X191761905Y-74048628D01*
X192666667Y-73524819D02*
X193333333Y-73524819D01*
X193333333Y-73524819D02*
X192904762Y-74524819D01*
X192333333Y-78929580D02*
X192285714Y-78977200D01*
X192285714Y-78977200D02*
X192142857Y-79024819D01*
X192142857Y-79024819D02*
X192047619Y-79024819D01*
X192047619Y-79024819D02*
X191904762Y-78977200D01*
X191904762Y-78977200D02*
X191809524Y-78881961D01*
X191809524Y-78881961D02*
X191761905Y-78786723D01*
X191761905Y-78786723D02*
X191714286Y-78596247D01*
X191714286Y-78596247D02*
X191714286Y-78453390D01*
X191714286Y-78453390D02*
X191761905Y-78262914D01*
X191761905Y-78262914D02*
X191809524Y-78167676D01*
X191809524Y-78167676D02*
X191904762Y-78072438D01*
X191904762Y-78072438D02*
X192047619Y-78024819D01*
X192047619Y-78024819D02*
X192142857Y-78024819D01*
X192142857Y-78024819D02*
X192285714Y-78072438D01*
X192285714Y-78072438D02*
X192333333Y-78120057D01*
X193190476Y-78024819D02*
X193000000Y-78024819D01*
X193000000Y-78024819D02*
X192904762Y-78072438D01*
X192904762Y-78072438D02*
X192857143Y-78120057D01*
X192857143Y-78120057D02*
X192761905Y-78262914D01*
X192761905Y-78262914D02*
X192714286Y-78453390D01*
X192714286Y-78453390D02*
X192714286Y-78834342D01*
X192714286Y-78834342D02*
X192761905Y-78929580D01*
X192761905Y-78929580D02*
X192809524Y-78977200D01*
X192809524Y-78977200D02*
X192904762Y-79024819D01*
X192904762Y-79024819D02*
X193095238Y-79024819D01*
X193095238Y-79024819D02*
X193190476Y-78977200D01*
X193190476Y-78977200D02*
X193238095Y-78929580D01*
X193238095Y-78929580D02*
X193285714Y-78834342D01*
X193285714Y-78834342D02*
X193285714Y-78596247D01*
X193285714Y-78596247D02*
X193238095Y-78501009D01*
X193238095Y-78501009D02*
X193190476Y-78453390D01*
X193190476Y-78453390D02*
X193095238Y-78405771D01*
X193095238Y-78405771D02*
X192904762Y-78405771D01*
X192904762Y-78405771D02*
X192809524Y-78453390D01*
X192809524Y-78453390D02*
X192761905Y-78501009D01*
X192761905Y-78501009D02*
X192714286Y-78596247D01*
X206857142Y-69954819D02*
X206523809Y-69478628D01*
X206285714Y-69954819D02*
X206285714Y-68954819D01*
X206285714Y-68954819D02*
X206666666Y-68954819D01*
X206666666Y-68954819D02*
X206761904Y-69002438D01*
X206761904Y-69002438D02*
X206809523Y-69050057D01*
X206809523Y-69050057D02*
X206857142Y-69145295D01*
X206857142Y-69145295D02*
X206857142Y-69288152D01*
X206857142Y-69288152D02*
X206809523Y-69383390D01*
X206809523Y-69383390D02*
X206761904Y-69431009D01*
X206761904Y-69431009D02*
X206666666Y-69478628D01*
X206666666Y-69478628D02*
X206285714Y-69478628D01*
X207809523Y-69954819D02*
X207238095Y-69954819D01*
X207523809Y-69954819D02*
X207523809Y-68954819D01*
X207523809Y-68954819D02*
X207428571Y-69097676D01*
X207428571Y-69097676D02*
X207333333Y-69192914D01*
X207333333Y-69192914D02*
X207238095Y-69240533D01*
X208428571Y-68954819D02*
X208523809Y-68954819D01*
X208523809Y-68954819D02*
X208619047Y-69002438D01*
X208619047Y-69002438D02*
X208666666Y-69050057D01*
X208666666Y-69050057D02*
X208714285Y-69145295D01*
X208714285Y-69145295D02*
X208761904Y-69335771D01*
X208761904Y-69335771D02*
X208761904Y-69573866D01*
X208761904Y-69573866D02*
X208714285Y-69764342D01*
X208714285Y-69764342D02*
X208666666Y-69859580D01*
X208666666Y-69859580D02*
X208619047Y-69907200D01*
X208619047Y-69907200D02*
X208523809Y-69954819D01*
X208523809Y-69954819D02*
X208428571Y-69954819D01*
X208428571Y-69954819D02*
X208333333Y-69907200D01*
X208333333Y-69907200D02*
X208285714Y-69859580D01*
X208285714Y-69859580D02*
X208238095Y-69764342D01*
X208238095Y-69764342D02*
X208190476Y-69573866D01*
X208190476Y-69573866D02*
X208190476Y-69335771D01*
X208190476Y-69335771D02*
X208238095Y-69145295D01*
X208238095Y-69145295D02*
X208285714Y-69050057D01*
X208285714Y-69050057D02*
X208333333Y-69002438D01*
X208333333Y-69002438D02*
X208428571Y-68954819D01*
X177833333Y-69954819D02*
X177500000Y-69478628D01*
X177261905Y-69954819D02*
X177261905Y-68954819D01*
X177261905Y-68954819D02*
X177642857Y-68954819D01*
X177642857Y-68954819D02*
X177738095Y-69002438D01*
X177738095Y-69002438D02*
X177785714Y-69050057D01*
X177785714Y-69050057D02*
X177833333Y-69145295D01*
X177833333Y-69145295D02*
X177833333Y-69288152D01*
X177833333Y-69288152D02*
X177785714Y-69383390D01*
X177785714Y-69383390D02*
X177738095Y-69431009D01*
X177738095Y-69431009D02*
X177642857Y-69478628D01*
X177642857Y-69478628D02*
X177261905Y-69478628D01*
X178166667Y-68954819D02*
X178785714Y-68954819D01*
X178785714Y-68954819D02*
X178452381Y-69335771D01*
X178452381Y-69335771D02*
X178595238Y-69335771D01*
X178595238Y-69335771D02*
X178690476Y-69383390D01*
X178690476Y-69383390D02*
X178738095Y-69431009D01*
X178738095Y-69431009D02*
X178785714Y-69526247D01*
X178785714Y-69526247D02*
X178785714Y-69764342D01*
X178785714Y-69764342D02*
X178738095Y-69859580D01*
X178738095Y-69859580D02*
X178690476Y-69907200D01*
X178690476Y-69907200D02*
X178595238Y-69954819D01*
X178595238Y-69954819D02*
X178309524Y-69954819D01*
X178309524Y-69954819D02*
X178214286Y-69907200D01*
X178214286Y-69907200D02*
X178166667Y-69859580D01*
X220333333Y-99524819D02*
X220000000Y-99048628D01*
X219761905Y-99524819D02*
X219761905Y-98524819D01*
X219761905Y-98524819D02*
X220142857Y-98524819D01*
X220142857Y-98524819D02*
X220238095Y-98572438D01*
X220238095Y-98572438D02*
X220285714Y-98620057D01*
X220285714Y-98620057D02*
X220333333Y-98715295D01*
X220333333Y-98715295D02*
X220333333Y-98858152D01*
X220333333Y-98858152D02*
X220285714Y-98953390D01*
X220285714Y-98953390D02*
X220238095Y-99001009D01*
X220238095Y-99001009D02*
X220142857Y-99048628D01*
X220142857Y-99048628D02*
X219761905Y-99048628D01*
X221190476Y-98524819D02*
X221000000Y-98524819D01*
X221000000Y-98524819D02*
X220904762Y-98572438D01*
X220904762Y-98572438D02*
X220857143Y-98620057D01*
X220857143Y-98620057D02*
X220761905Y-98762914D01*
X220761905Y-98762914D02*
X220714286Y-98953390D01*
X220714286Y-98953390D02*
X220714286Y-99334342D01*
X220714286Y-99334342D02*
X220761905Y-99429580D01*
X220761905Y-99429580D02*
X220809524Y-99477200D01*
X220809524Y-99477200D02*
X220904762Y-99524819D01*
X220904762Y-99524819D02*
X221095238Y-99524819D01*
X221095238Y-99524819D02*
X221190476Y-99477200D01*
X221190476Y-99477200D02*
X221238095Y-99429580D01*
X221238095Y-99429580D02*
X221285714Y-99334342D01*
X221285714Y-99334342D02*
X221285714Y-99096247D01*
X221285714Y-99096247D02*
X221238095Y-99001009D01*
X221238095Y-99001009D02*
X221190476Y-98953390D01*
X221190476Y-98953390D02*
X221095238Y-98905771D01*
X221095238Y-98905771D02*
X220904762Y-98905771D01*
X220904762Y-98905771D02*
X220809524Y-98953390D01*
X220809524Y-98953390D02*
X220761905Y-99001009D01*
X220761905Y-99001009D02*
X220714286Y-99096247D01*
X192420833Y-69954819D02*
X192087500Y-69478628D01*
X191849405Y-69954819D02*
X191849405Y-68954819D01*
X191849405Y-68954819D02*
X192230357Y-68954819D01*
X192230357Y-68954819D02*
X192325595Y-69002438D01*
X192325595Y-69002438D02*
X192373214Y-69050057D01*
X192373214Y-69050057D02*
X192420833Y-69145295D01*
X192420833Y-69145295D02*
X192420833Y-69288152D01*
X192420833Y-69288152D02*
X192373214Y-69383390D01*
X192373214Y-69383390D02*
X192325595Y-69431009D01*
X192325595Y-69431009D02*
X192230357Y-69478628D01*
X192230357Y-69478628D02*
X191849405Y-69478628D01*
X192992262Y-69383390D02*
X192897024Y-69335771D01*
X192897024Y-69335771D02*
X192849405Y-69288152D01*
X192849405Y-69288152D02*
X192801786Y-69192914D01*
X192801786Y-69192914D02*
X192801786Y-69145295D01*
X192801786Y-69145295D02*
X192849405Y-69050057D01*
X192849405Y-69050057D02*
X192897024Y-69002438D01*
X192897024Y-69002438D02*
X192992262Y-68954819D01*
X192992262Y-68954819D02*
X193182738Y-68954819D01*
X193182738Y-68954819D02*
X193277976Y-69002438D01*
X193277976Y-69002438D02*
X193325595Y-69050057D01*
X193325595Y-69050057D02*
X193373214Y-69145295D01*
X193373214Y-69145295D02*
X193373214Y-69192914D01*
X193373214Y-69192914D02*
X193325595Y-69288152D01*
X193325595Y-69288152D02*
X193277976Y-69335771D01*
X193277976Y-69335771D02*
X193182738Y-69383390D01*
X193182738Y-69383390D02*
X192992262Y-69383390D01*
X192992262Y-69383390D02*
X192897024Y-69431009D01*
X192897024Y-69431009D02*
X192849405Y-69478628D01*
X192849405Y-69478628D02*
X192801786Y-69573866D01*
X192801786Y-69573866D02*
X192801786Y-69764342D01*
X192801786Y-69764342D02*
X192849405Y-69859580D01*
X192849405Y-69859580D02*
X192897024Y-69907200D01*
X192897024Y-69907200D02*
X192992262Y-69954819D01*
X192992262Y-69954819D02*
X193182738Y-69954819D01*
X193182738Y-69954819D02*
X193277976Y-69907200D01*
X193277976Y-69907200D02*
X193325595Y-69859580D01*
X193325595Y-69859580D02*
X193373214Y-69764342D01*
X193373214Y-69764342D02*
X193373214Y-69573866D01*
X193373214Y-69573866D02*
X193325595Y-69478628D01*
X193325595Y-69478628D02*
X193277976Y-69431009D01*
X193277976Y-69431009D02*
X193182738Y-69383390D01*
X177833333Y-78929580D02*
X177785714Y-78977200D01*
X177785714Y-78977200D02*
X177642857Y-79024819D01*
X177642857Y-79024819D02*
X177547619Y-79024819D01*
X177547619Y-79024819D02*
X177404762Y-78977200D01*
X177404762Y-78977200D02*
X177309524Y-78881961D01*
X177309524Y-78881961D02*
X177261905Y-78786723D01*
X177261905Y-78786723D02*
X177214286Y-78596247D01*
X177214286Y-78596247D02*
X177214286Y-78453390D01*
X177214286Y-78453390D02*
X177261905Y-78262914D01*
X177261905Y-78262914D02*
X177309524Y-78167676D01*
X177309524Y-78167676D02*
X177404762Y-78072438D01*
X177404762Y-78072438D02*
X177547619Y-78024819D01*
X177547619Y-78024819D02*
X177642857Y-78024819D01*
X177642857Y-78024819D02*
X177785714Y-78072438D01*
X177785714Y-78072438D02*
X177833333Y-78120057D01*
X178738095Y-78024819D02*
X178261905Y-78024819D01*
X178261905Y-78024819D02*
X178214286Y-78501009D01*
X178214286Y-78501009D02*
X178261905Y-78453390D01*
X178261905Y-78453390D02*
X178357143Y-78405771D01*
X178357143Y-78405771D02*
X178595238Y-78405771D01*
X178595238Y-78405771D02*
X178690476Y-78453390D01*
X178690476Y-78453390D02*
X178738095Y-78501009D01*
X178738095Y-78501009D02*
X178785714Y-78596247D01*
X178785714Y-78596247D02*
X178785714Y-78834342D01*
X178785714Y-78834342D02*
X178738095Y-78929580D01*
X178738095Y-78929580D02*
X178690476Y-78977200D01*
X178690476Y-78977200D02*
X178595238Y-79024819D01*
X178595238Y-79024819D02*
X178357143Y-79024819D01*
X178357143Y-79024819D02*
X178261905Y-78977200D01*
X178261905Y-78977200D02*
X178214286Y-78929580D01*
D12*
X197005000Y-74350000D02*
X197005000Y-76650000D01*
X197800000Y-72505000D02*
X202300000Y-72505000D01*
X202300000Y-78495000D02*
X197700000Y-78495000D01*
X203000000Y-74350000D02*
X203000000Y-76650000D01*
D13*
X195655000Y-73250000D02*
G75*
G02*
X195455000Y-73250000I-100000J0D01*
G01*
X195455000Y-73250000D02*
G75*
G02*
X195655000Y-73250000I100000J0D01*
G01*
D12*
X201755000Y-75500000D02*
G75*
G02*
X198245000Y-75500000I-1755000J0D01*
G01*
X198245000Y-75500000D02*
G75*
G02*
X201755000Y-75500000I1755000J0D01*
G01*
D14*
X220245276Y-94977500D02*
X220754724Y-94977500D01*
X220245276Y-96022500D02*
X220754724Y-96022500D01*
X181738748Y-115765000D02*
X182261252Y-115765000D01*
X181738748Y-117235000D02*
X182261252Y-117235000D01*
X177745276Y-74977500D02*
X178254724Y-74977500D01*
X177745276Y-76022500D02*
X178254724Y-76022500D01*
X207245276Y-74977500D02*
X207754724Y-74977500D01*
X207245276Y-76022500D02*
X207754724Y-76022500D01*
X207353733Y-79490000D02*
X207646267Y-79490000D01*
X207353733Y-80510000D02*
X207646267Y-80510000D01*
X192245276Y-74977500D02*
X192754724Y-74977500D01*
X192245276Y-76022500D02*
X192754724Y-76022500D01*
X192353733Y-79490000D02*
X192646267Y-79490000D01*
X192353733Y-80510000D02*
X192646267Y-80510000D01*
X207754724Y-70477500D02*
X207245276Y-70477500D01*
X207754724Y-71522500D02*
X207245276Y-71522500D01*
X178254724Y-70477500D02*
X177745276Y-70477500D01*
X178254724Y-71522500D02*
X177745276Y-71522500D01*
D12*
X212005000Y-74350000D02*
X212005000Y-76650000D01*
X212800000Y-72505000D02*
X217300000Y-72505000D01*
X217300000Y-78495000D02*
X212700000Y-78495000D01*
X218000000Y-74350000D02*
X218000000Y-76650000D01*
D13*
X210655000Y-73250000D02*
G75*
G02*
X210455000Y-73250000I-100000J0D01*
G01*
X210455000Y-73250000D02*
G75*
G02*
X210655000Y-73250000I100000J0D01*
G01*
D12*
X216755000Y-75500000D02*
G75*
G02*
X213245000Y-75500000I-1755000J0D01*
G01*
X213245000Y-75500000D02*
G75*
G02*
X216755000Y-75500000I1755000J0D01*
G01*
D14*
X220245276Y-99977500D02*
X220754724Y-99977500D01*
X220245276Y-101022500D02*
X220754724Y-101022500D01*
X192842224Y-70477500D02*
X192332776Y-70477500D01*
X192842224Y-71522500D02*
X192332776Y-71522500D01*
X177853733Y-79490000D02*
X178146267Y-79490000D01*
X177853733Y-80510000D02*
X178146267Y-80510000D01*
D12*
X182005000Y-74350000D02*
X182005000Y-76650000D01*
X182800000Y-72505000D02*
X187300000Y-72505000D01*
X187300000Y-78495000D02*
X182700000Y-78495000D01*
X188000000Y-74350000D02*
X188000000Y-76650000D01*
D13*
X180655000Y-73250000D02*
G75*
G02*
X180455000Y-73250000I-100000J0D01*
G01*
X180455000Y-73250000D02*
G75*
G02*
X180655000Y-73250000I100000J0D01*
G01*
D12*
X186755000Y-75500000D02*
G75*
G02*
X183245000Y-75500000I-1755000J0D01*
G01*
X183245000Y-75500000D02*
G75*
G02*
X186755000Y-75500000I1755000J0D01*
G01*
%LPC*%
D15*
X216350000Y-138890000D03*
X216350000Y-136350000D03*
X216350000Y-133810000D03*
X216350000Y-131270000D03*
X216350000Y-128730000D03*
X216350000Y-126190000D03*
X216350000Y-123650000D03*
X216350000Y-121110000D03*
D16*
X196750000Y-73250000D03*
D17*
X203250000Y-73250000D03*
X196750000Y-77750000D03*
X203250000Y-77750000D03*
D18*
X219587500Y-95500000D03*
X221412500Y-95500000D03*
D19*
X175870000Y-106043000D03*
X175870000Y-108583000D03*
X175870000Y-111123000D03*
X175870000Y-113663000D03*
X175870000Y-116203000D03*
D20*
X175870000Y-118743000D03*
X175870000Y-121283000D03*
D19*
X175870000Y-123823000D03*
X175870000Y-128903000D03*
X175870000Y-131443000D03*
X175870000Y-133983000D03*
X175870000Y-136523000D03*
X175870000Y-139063000D03*
X175870000Y-141603000D03*
X224130000Y-141603000D03*
X224130000Y-139063000D03*
X224130000Y-136523000D03*
X224130000Y-133983000D03*
X224130000Y-131443000D03*
X224130000Y-128903000D03*
X224130000Y-126363000D03*
X224130000Y-123823000D03*
X224130000Y-119759000D03*
X224130000Y-117219000D03*
X224130000Y-114679000D03*
X224130000Y-112139000D03*
X224130000Y-109599000D03*
X224130000Y-107059000D03*
D20*
X224130000Y-104519000D03*
D19*
X224130000Y-101979000D03*
X224130000Y-99439000D03*
X224130000Y-96899000D03*
D21*
X180962500Y-116500000D03*
X183037500Y-116500000D03*
D15*
X196190000Y-85000000D03*
X198730000Y-85000000D03*
X201270000Y-85000000D03*
X203810000Y-85000000D03*
D18*
X177087500Y-75500000D03*
X178912500Y-75500000D03*
D22*
X187460000Y-138890000D03*
X188730000Y-138890000D03*
X190000000Y-138890000D03*
X191270000Y-138890000D03*
X192540000Y-138890000D03*
X193810000Y-138890000D03*
X195080000Y-138890000D03*
X187460000Y-121110000D03*
X188730000Y-121110000D03*
X190000000Y-121110000D03*
X191270000Y-121110000D03*
X192540000Y-121110000D03*
X193810000Y-121110000D03*
X195080000Y-121110000D03*
X196350000Y-121110000D03*
X197620000Y-121110000D03*
D18*
X206587500Y-75500000D03*
X208412500Y-75500000D03*
D23*
X206637500Y-80000000D03*
X208362500Y-80000000D03*
D18*
X191587500Y-75500000D03*
X193412500Y-75500000D03*
D23*
X191637500Y-80000000D03*
X193362500Y-80000000D03*
D24*
X208412500Y-71000000D03*
X206587500Y-71000000D03*
X178912500Y-71000000D03*
X177087500Y-71000000D03*
D16*
X211750000Y-73250000D03*
D17*
X218250000Y-73250000D03*
X211750000Y-77750000D03*
X218250000Y-77750000D03*
D18*
X219587500Y-100500000D03*
X221412500Y-100500000D03*
D24*
X193500000Y-71000000D03*
X191675000Y-71000000D03*
D23*
X177137500Y-80000000D03*
X178862500Y-80000000D03*
D16*
X181750000Y-73250000D03*
D17*
X188250000Y-73250000D03*
X181750000Y-77750000D03*
X188250000Y-77750000D03*
%LPD*%
M02*
