G04 #@! TF.GenerationSoftware,KiCad,Pcbnew,8.0.6*
G04 #@! TF.CreationDate,2025-12-03T00:04:18-05:00*
G04 #@! TF.ProjectId,dead_reckoning_shield,64656164-5f72-4656-936b-6f6e696e675f,rev?*
G04 #@! TF.SameCoordinates,Original*
G04 #@! TF.FileFunction,Soldermask,Top*
G04 #@! TF.FilePolarity,Negative*
%FSLAX46Y46*%
G04 Gerber Fmt 4.6, Leading zero omitted, Abs format (unit mm)*
G04 Created by KiCad (PCBNEW 8.0.6) date 2025-12-03 00:04:18*
%MOMM*%
%LPD*%
G01*
G04 APERTURE LIST*
G04 Aperture macros list*
%AMRoundRect*
0 Rectangle with rounded corners*
0 $1 Rounding radius*
0 $2 $3 $4 $5 $6 $7 $8 $9 X,Y pos of 4 corners*
0 Add a 4 corners polygon primitive as box body*
4,1,4,$2,$3,$4,$5,$6,$7,$8,$9,$2,$3,0*
0 Add four circle primitives for the rounded corners*
1,1,$1+$1,$2,$3*
1,1,$1+$1,$4,$5*
1,1,$1+$1,$6,$7*
1,1,$1+$1,$8,$9*
0 Add four rect primitives between the rounded corners*
20,1,$1+$1,$2,$3,$4,$5,0*
20,1,$1+$1,$4,$5,$6,$7,0*
20,1,$1+$1,$6,$7,$8,$9,0*
20,1,$1+$1,$8,$9,$2,$3,0*%
G04 Aperture macros list end*
%ADD10C,1.600000*%
%ADD11RoundRect,0.102000X-0.749000X-0.749000X0.749000X-0.749000X0.749000X0.749000X-0.749000X0.749000X0*%
%ADD12C,1.702000*%
%ADD13RoundRect,0.237500X-0.250000X-0.237500X0.250000X-0.237500X0.250000X0.237500X-0.250000X0.237500X0*%
%ADD14O,1.727200X1.727200*%
%ADD15R,1.727200X1.727200*%
%ADD16RoundRect,0.250000X-0.337500X-0.475000X0.337500X-0.475000X0.337500X0.475000X-0.337500X0.475000X0*%
%ADD17C,1.000000*%
%ADD18RoundRect,0.237500X-0.300000X-0.237500X0.300000X-0.237500X0.300000X0.237500X-0.300000X0.237500X0*%
%ADD19RoundRect,0.237500X0.250000X0.237500X-0.250000X0.237500X-0.250000X-0.237500X0.250000X-0.237500X0*%
G04 APERTURE END LIST*
D10*
X216350000Y-138890000D03*
X216350000Y-136350000D03*
X216350000Y-133810000D03*
X216350000Y-131270000D03*
X216350000Y-128730000D03*
X216350000Y-126190000D03*
X216350000Y-123650000D03*
X216350000Y-121110000D03*
D11*
X196750000Y-73250000D03*
D12*
X203250000Y-73250000D03*
X196750000Y-77750000D03*
X203250000Y-77750000D03*
D13*
X219587500Y-95500000D03*
X221412500Y-95500000D03*
D14*
X175870000Y-106043000D03*
X175870000Y-108583000D03*
X175870000Y-111123000D03*
X175870000Y-113663000D03*
X175870000Y-116203000D03*
D15*
X175870000Y-118743000D03*
X175870000Y-121283000D03*
D14*
X175870000Y-123823000D03*
X175870000Y-128903000D03*
X175870000Y-131443000D03*
X175870000Y-133983000D03*
X175870000Y-136523000D03*
X175870000Y-139063000D03*
X175870000Y-141603000D03*
X224130000Y-141603000D03*
X224130000Y-139063000D03*
X224130000Y-136523000D03*
X224130000Y-133983000D03*
X224130000Y-131443000D03*
X224130000Y-128903000D03*
X224130000Y-126363000D03*
X224130000Y-123823000D03*
X224130000Y-119759000D03*
X224130000Y-117219000D03*
X224130000Y-114679000D03*
X224130000Y-112139000D03*
X224130000Y-109599000D03*
X224130000Y-107059000D03*
D15*
X224130000Y-104519000D03*
D14*
X224130000Y-101979000D03*
X224130000Y-99439000D03*
X224130000Y-96899000D03*
D16*
X180962500Y-116500000D03*
X183037500Y-116500000D03*
D10*
X196190000Y-85000000D03*
X198730000Y-85000000D03*
X201270000Y-85000000D03*
X203810000Y-85000000D03*
D13*
X177087500Y-75500000D03*
X178912500Y-75500000D03*
D17*
X187460000Y-138890000D03*
X188730000Y-138890000D03*
X190000000Y-138890000D03*
X191270000Y-138890000D03*
X192540000Y-138890000D03*
X193810000Y-138890000D03*
X195080000Y-138890000D03*
X187460000Y-121110000D03*
X188730000Y-121110000D03*
X190000000Y-121110000D03*
X191270000Y-121110000D03*
X192540000Y-121110000D03*
X193810000Y-121110000D03*
X195080000Y-121110000D03*
X196350000Y-121110000D03*
X197620000Y-121110000D03*
D13*
X206587500Y-75500000D03*
X208412500Y-75500000D03*
D18*
X206637500Y-80000000D03*
X208362500Y-80000000D03*
D13*
X191587500Y-75500000D03*
X193412500Y-75500000D03*
D18*
X191637500Y-80000000D03*
X193362500Y-80000000D03*
D19*
X208412500Y-71000000D03*
X206587500Y-71000000D03*
X178912500Y-71000000D03*
X177087500Y-71000000D03*
D11*
X211750000Y-73250000D03*
D12*
X218250000Y-73250000D03*
X211750000Y-77750000D03*
X218250000Y-77750000D03*
D13*
X219587500Y-100500000D03*
X221412500Y-100500000D03*
D19*
X193500000Y-71000000D03*
X191675000Y-71000000D03*
D18*
X177137500Y-80000000D03*
X178862500Y-80000000D03*
D11*
X181750000Y-73250000D03*
D12*
X188250000Y-73250000D03*
X181750000Y-77750000D03*
X188250000Y-77750000D03*
M02*
