G04 #@! TF.GenerationSoftware,KiCad,Pcbnew,8.0.6*
G04 #@! TF.CreationDate,2025-12-03T00:04:18-05:00*
G04 #@! TF.ProjectId,dead_reckoning_shield,64656164-5f72-4656-936b-6f6e696e675f,rev?*
G04 #@! TF.SameCoordinates,Original*
G04 #@! TF.FileFunction,Profile,NP*
%FSLAX46Y46*%
G04 Gerber Fmt 4.6, Leading zero omitted, Abs format (unit mm)*
G04 Created by KiCad (PCBNEW 8.0.6) date 2025-12-03 00:04:18*
%MOMM*%
%LPD*%
G01*
G04 APERTURE LIST*
G04 #@! TA.AperFunction,Profile*
%ADD10C,0.050000*%
G04 #@! TD*
G04 APERTURE END LIST*
D10*
X175000000Y-146000000D02*
X225000000Y-146000000D01*
X225000000Y-67000000D02*
G75*
G02*
X230000000Y-72000000I0J-5000000D01*
G01*
X175000000Y-67000000D02*
X225000000Y-67000000D01*
X170000000Y-72000000D02*
G75*
G02*
X175000000Y-67000000I5000000J0D01*
G01*
X230000000Y-72000000D02*
X230000000Y-141000000D01*
X175000000Y-146000000D02*
G75*
G02*
X170000000Y-141000000I0J5000000D01*
G01*
X170000000Y-141000000D02*
X170000000Y-72000000D01*
X230000000Y-141000000D02*
G75*
G02*
X225000000Y-146000000I-5000000J0D01*
G01*
X205017832Y-120094000D02*
G75*
G02*
X202282168Y-120094000I-1367832J0D01*
G01*
X202282168Y-120094000D02*
G75*
G02*
X205017832Y-120094000I1367832J0D01*
G01*
X205017832Y-140160000D02*
G75*
G02*
X202282168Y-140160000I-1367832J0D01*
G01*
X202282168Y-140160000D02*
G75*
G02*
X205017832Y-140160000I1367832J0D01*
G01*
X187618034Y-85000000D02*
G75*
G02*
X185381966Y-85000000I-1118034J0D01*
G01*
X185381966Y-85000000D02*
G75*
G02*
X187618034Y-85000000I1118034J0D01*
G01*
X187618034Y-112000000D02*
G75*
G02*
X185381966Y-112000000I-1118034J0D01*
G01*
X185381966Y-112000000D02*
G75*
G02*
X187618034Y-112000000I1118034J0D01*
G01*
X214618034Y-85000000D02*
G75*
G02*
X212381966Y-85000000I-1118034J0D01*
G01*
X212381966Y-85000000D02*
G75*
G02*
X214618034Y-85000000I1118034J0D01*
G01*
X214618034Y-112000000D02*
G75*
G02*
X212381966Y-112000000I-1118034J0D01*
G01*
X212381966Y-112000000D02*
G75*
G02*
X214618034Y-112000000I1118034J0D01*
G01*
X192540000Y-135965000D02*
X203970000Y-135965000D01*
X203970000Y-124035000D01*
X192540000Y-124035000D01*
X192540000Y-135965000D01*
M02*
