M48
; DRILL file {KiCad 8.0.6} date 2025-12-03T00:04:37-0500
; FORMAT={-:-/ absolute / metric / decimal}
; #@! TF.CreationDate,2025-12-03T00:04:37-05:00
; #@! TF.GenerationSoftware,Kicad,Pcbnew,8.0.6
; #@! TF.FileFunction,Plated,1,4,PTH
FMAT,2
METRIC
; #@! TA.AperFunction,Plated,PTH,ViaDrill
T1C0.300
; #@! TA.AperFunction,Plated,PTH,ComponentDrill
T2C0.600
; #@! TA.AperFunction,Plated,PTH,ComponentDrill
T3C0.800
; #@! TA.AperFunction,Plated,PTH,ComponentDrill
T4C0.990
; #@! TA.AperFunction,Plated,PTH,ComponentDrill
T5C1.016
%
G90
G05
T1
X176.0Y-71.0
X177.0Y-81.5
X179.5Y-115.5
X179.5Y-116.5
X179.5Y-117.5
X184.5Y-115.5
X184.5Y-116.5
X184.5Y-117.5
X185.0Y-126.0
X185.0Y-134.5
X187.0Y-126.0
X187.0Y-134.5
X189.5Y-122.5
X189.5Y-126.0
X189.5Y-134.5
X189.5Y-137.5
X190.5Y-71.0
X190.5Y-122.5
X190.5Y-137.5
X191.5Y-81.5
X195.0Y-88.5
X199.0Y-88.5
X205.5Y-71.0
X206.5Y-81.5
X212.5Y-117.5
X214.5Y-117.5
X217.777Y-122.55
X218.5Y-95.5
X218.5Y-100.5
X222.613Y-127.386
T2
X187.46Y-121.11
X187.46Y-138.89
X188.73Y-121.11
X188.73Y-138.89
X190.0Y-121.11
X190.0Y-138.89
X191.27Y-121.11
X191.27Y-138.89
X192.54Y-121.11
X192.54Y-138.89
X193.81Y-121.11
X193.81Y-138.89
X195.08Y-121.11
X195.08Y-138.89
X196.35Y-121.11
X197.62Y-121.11
T3
X196.19Y-85.0
X198.73Y-85.0
X201.27Y-85.0
X203.81Y-85.0
X216.35Y-121.11
X216.35Y-123.65
X216.35Y-126.19
X216.35Y-128.73
X216.35Y-131.27
X216.35Y-133.81
X216.35Y-136.35
X216.35Y-138.89
T4
X181.75Y-73.25
X181.75Y-77.75
X188.25Y-73.25
X188.25Y-77.75
X196.75Y-73.25
X196.75Y-77.75
X203.25Y-73.25
X203.25Y-77.75
X211.75Y-73.25
X211.75Y-77.75
X218.25Y-73.25
X218.25Y-77.75
T5
X175.87Y-106.043
X175.87Y-108.583
X175.87Y-111.123
X175.87Y-113.663
X175.87Y-116.203
X175.87Y-118.743
X175.87Y-121.283
X175.87Y-123.823
X175.87Y-128.903
X175.87Y-131.443
X175.87Y-133.983
X175.87Y-136.523
X175.87Y-139.063
X175.87Y-141.603
X224.13Y-96.899
X224.13Y-99.439
X224.13Y-101.979
X224.13Y-104.519
X224.13Y-107.059
X224.13Y-109.599
X224.13Y-112.139
X224.13Y-114.679
X224.13Y-117.219
X224.13Y-119.759
X224.13Y-123.823
X224.13Y-126.363
X224.13Y-128.903
X224.13Y-131.443
X224.13Y-133.983
X224.13Y-136.523
X224.13Y-139.063
X224.13Y-141.603
M30
