%TF.GenerationSoftware,KiCad,Pcbnew,8.0.6*%
%TF.CreationDate,2025-12-03T00:04:38-05:00*%
%TF.ProjectId,dead_reckoning_shield,64656164-5f72-4656-936b-6f6e696e675f,rev?*%
%TF.SameCoordinates,Original*%
%TF.FileFunction,Drillmap*%
%TF.FilePolarity,Positive*%
%FSLAX45Y45*%
G04 Gerber Fmt 4.5, Leading zero omitted, Abs format (unit mm)*
G04 Created by KiCad (PCBNEW 8.0.6) date 2025-12-03 00:04:38*
%MOMM*%
%LPD*%
G01*
G04 APERTURE LIST*
%ADD10C,0.050000*%
%ADD11C,0.200000*%
G04 APERTURE END LIST*
D10*
X17500000Y-14600000D02*
X22500000Y-14600000D01*
X22500000Y-6700000D02*
G75*
G02*
X23000000Y-7200000I0J-500000D01*
G01*
X17500000Y-6700000D02*
X22500000Y-6700000D01*
X17000000Y-7200000D02*
G75*
G02*
X17500000Y-6700000I500000J0D01*
G01*
X23000000Y-7200000D02*
X23000000Y-14100000D01*
X17500000Y-14600000D02*
G75*
G02*
X17000000Y-14100000I0J500000D01*
G01*
X17000000Y-14100000D02*
X17000000Y-7200000D01*
X23000000Y-14100000D02*
G75*
G02*
X22500000Y-14600000I-500000J0D01*
G01*
X20501783Y-12009400D02*
G75*
G02*
X20228217Y-12009400I-136783J0D01*
G01*
X20228217Y-12009400D02*
G75*
G02*
X20501783Y-12009400I136783J0D01*
G01*
X20501783Y-14016000D02*
G75*
G02*
X20228217Y-14016000I-136783J0D01*
G01*
X20228217Y-14016000D02*
G75*
G02*
X20501783Y-14016000I136783J0D01*
G01*
X18761803Y-8500000D02*
G75*
G02*
X18538197Y-8500000I-111803J0D01*
G01*
X18538197Y-8500000D02*
G75*
G02*
X18761803Y-8500000I111803J0D01*
G01*
X18761803Y-11200000D02*
G75*
G02*
X18538197Y-11200000I-111803J0D01*
G01*
X18538197Y-11200000D02*
G75*
G02*
X18761803Y-11200000I111803J0D01*
G01*
X21461803Y-8500000D02*
G75*
G02*
X21238197Y-8500000I-111803J0D01*
G01*
X21238197Y-8500000D02*
G75*
G02*
X21461803Y-8500000I111803J0D01*
G01*
X21461803Y-11200000D02*
G75*
G02*
X21238197Y-11200000I-111803J0D01*
G01*
X21238197Y-11200000D02*
G75*
G02*
X21461803Y-11200000I111803J0D01*
G01*
X19254000Y-13596500D02*
X20397000Y-13596500D01*
X20397000Y-12403500D01*
X19254000Y-12403500D01*
X19254000Y-13596500D01*
D11*
X17258277Y-14913984D02*
X17258277Y-14713984D01*
X17258277Y-14713984D02*
X17305896Y-14713984D01*
X17305896Y-14713984D02*
X17334467Y-14723508D01*
X17334467Y-14723508D02*
X17353515Y-14742555D01*
X17353515Y-14742555D02*
X17363039Y-14761603D01*
X17363039Y-14761603D02*
X17372563Y-14799698D01*
X17372563Y-14799698D02*
X17372563Y-14828269D01*
X17372563Y-14828269D02*
X17363039Y-14866365D01*
X17363039Y-14866365D02*
X17353515Y-14885412D01*
X17353515Y-14885412D02*
X17334467Y-14904460D01*
X17334467Y-14904460D02*
X17305896Y-14913984D01*
X17305896Y-14913984D02*
X17258277Y-14913984D01*
X17458277Y-14913984D02*
X17458277Y-14780650D01*
X17458277Y-14818746D02*
X17467801Y-14799698D01*
X17467801Y-14799698D02*
X17477324Y-14790174D01*
X17477324Y-14790174D02*
X17496372Y-14780650D01*
X17496372Y-14780650D02*
X17515420Y-14780650D01*
X17582086Y-14913984D02*
X17582086Y-14780650D01*
X17582086Y-14713984D02*
X17572563Y-14723508D01*
X17572563Y-14723508D02*
X17582086Y-14733031D01*
X17582086Y-14733031D02*
X17591610Y-14723508D01*
X17591610Y-14723508D02*
X17582086Y-14713984D01*
X17582086Y-14713984D02*
X17582086Y-14733031D01*
X17705896Y-14913984D02*
X17686848Y-14904460D01*
X17686848Y-14904460D02*
X17677324Y-14885412D01*
X17677324Y-14885412D02*
X17677324Y-14713984D01*
X17810658Y-14913984D02*
X17791610Y-14904460D01*
X17791610Y-14904460D02*
X17782086Y-14885412D01*
X17782086Y-14885412D02*
X17782086Y-14713984D01*
X18039229Y-14913984D02*
X18039229Y-14713984D01*
X18039229Y-14713984D02*
X18105896Y-14856841D01*
X18105896Y-14856841D02*
X18172563Y-14713984D01*
X18172563Y-14713984D02*
X18172563Y-14913984D01*
X18353515Y-14913984D02*
X18353515Y-14809222D01*
X18353515Y-14809222D02*
X18343991Y-14790174D01*
X18343991Y-14790174D02*
X18324944Y-14780650D01*
X18324944Y-14780650D02*
X18286848Y-14780650D01*
X18286848Y-14780650D02*
X18267801Y-14790174D01*
X18353515Y-14904460D02*
X18334467Y-14913984D01*
X18334467Y-14913984D02*
X18286848Y-14913984D01*
X18286848Y-14913984D02*
X18267801Y-14904460D01*
X18267801Y-14904460D02*
X18258277Y-14885412D01*
X18258277Y-14885412D02*
X18258277Y-14866365D01*
X18258277Y-14866365D02*
X18267801Y-14847317D01*
X18267801Y-14847317D02*
X18286848Y-14837793D01*
X18286848Y-14837793D02*
X18334467Y-14837793D01*
X18334467Y-14837793D02*
X18353515Y-14828269D01*
X18448753Y-14780650D02*
X18448753Y-14980650D01*
X18448753Y-14790174D02*
X18467801Y-14780650D01*
X18467801Y-14780650D02*
X18505896Y-14780650D01*
X18505896Y-14780650D02*
X18524944Y-14790174D01*
X18524944Y-14790174D02*
X18534467Y-14799698D01*
X18534467Y-14799698D02*
X18543991Y-14818746D01*
X18543991Y-14818746D02*
X18543991Y-14875888D01*
X18543991Y-14875888D02*
X18534467Y-14894936D01*
X18534467Y-14894936D02*
X18524944Y-14904460D01*
X18524944Y-14904460D02*
X18505896Y-14913984D01*
X18505896Y-14913984D02*
X18467801Y-14913984D01*
X18467801Y-14913984D02*
X18448753Y-14904460D01*
X18629705Y-14894936D02*
X18639229Y-14904460D01*
X18639229Y-14904460D02*
X18629705Y-14913984D01*
X18629705Y-14913984D02*
X18620182Y-14904460D01*
X18620182Y-14904460D02*
X18629705Y-14894936D01*
X18629705Y-14894936D02*
X18629705Y-14913984D01*
X18629705Y-14790174D02*
X18639229Y-14799698D01*
X18639229Y-14799698D02*
X18629705Y-14809222D01*
X18629705Y-14809222D02*
X18620182Y-14799698D01*
X18620182Y-14799698D02*
X18629705Y-14790174D01*
X18629705Y-14790174D02*
X18629705Y-14809222D01*
M02*
