G04 #@! TF.GenerationSoftware,KiCad,Pcbnew,8.0.6*
G04 #@! TF.CreationDate,2025-12-03T00:04:17-05:00*
G04 #@! TF.ProjectId,dead_reckoning_shield,64656164-5f72-4656-936b-6f6e696e675f,rev?*
G04 #@! TF.SameCoordinates,Original*
G04 #@! TF.FileFunction,Copper,L1,Top*
G04 #@! TF.FilePolarity,Positive*
%FSLAX46Y46*%
G04 Gerber Fmt 4.6, Leading zero omitted, Abs format (unit mm)*
G04 Created by KiCad (PCBNEW 8.0.6) date 2025-12-03 00:04:17*
%MOMM*%
%LPD*%
G01*
G04 APERTURE LIST*
G04 Aperture macros list*
%AMRoundRect*
0 Rectangle with rounded corners*
0 $1 Rounding radius*
0 $2 $3 $4 $5 $6 $7 $8 $9 X,Y pos of 4 corners*
0 Add a 4 corners polygon primitive as box body*
4,1,4,$2,$3,$4,$5,$6,$7,$8,$9,$2,$3,0*
0 Add four circle primitives for the rounded corners*
1,1,$1+$1,$2,$3*
1,1,$1+$1,$4,$5*
1,1,$1+$1,$6,$7*
1,1,$1+$1,$8,$9*
0 Add four rect primitives between the rounded corners*
20,1,$1+$1,$2,$3,$4,$5,0*
20,1,$1+$1,$4,$5,$6,$7,0*
20,1,$1+$1,$6,$7,$8,$9,0*
20,1,$1+$1,$8,$9,$2,$3,0*%
G04 Aperture macros list end*
G04 #@! TA.AperFunction,ComponentPad*
%ADD10C,1.600000*%
G04 #@! TD*
G04 #@! TA.AperFunction,ComponentPad*
%ADD11R,1.498000X1.498000*%
G04 #@! TD*
G04 #@! TA.AperFunction,ComponentPad*
%ADD12C,1.498000*%
G04 #@! TD*
G04 #@! TA.AperFunction,SMDPad,CuDef*
%ADD13RoundRect,0.237500X-0.250000X-0.237500X0.250000X-0.237500X0.250000X0.237500X-0.250000X0.237500X0*%
G04 #@! TD*
G04 #@! TA.AperFunction,ComponentPad*
%ADD14O,1.727200X1.727200*%
G04 #@! TD*
G04 #@! TA.AperFunction,ComponentPad*
%ADD15R,1.727200X1.727200*%
G04 #@! TD*
G04 #@! TA.AperFunction,SMDPad,CuDef*
%ADD16RoundRect,0.250000X-0.337500X-0.475000X0.337500X-0.475000X0.337500X0.475000X-0.337500X0.475000X0*%
G04 #@! TD*
G04 #@! TA.AperFunction,ComponentPad*
%ADD17C,1.000000*%
G04 #@! TD*
G04 #@! TA.AperFunction,SMDPad,CuDef*
%ADD18RoundRect,0.237500X-0.300000X-0.237500X0.300000X-0.237500X0.300000X0.237500X-0.300000X0.237500X0*%
G04 #@! TD*
G04 #@! TA.AperFunction,SMDPad,CuDef*
%ADD19RoundRect,0.237500X0.250000X0.237500X-0.250000X0.237500X-0.250000X-0.237500X0.250000X-0.237500X0*%
G04 #@! TD*
G04 #@! TA.AperFunction,ViaPad*
%ADD20C,0.600000*%
G04 #@! TD*
G04 #@! TA.AperFunction,Conductor*
%ADD21C,0.200000*%
G04 #@! TD*
G04 APERTURE END LIST*
D10*
X216350000Y-138890000D03*
X216350000Y-136350000D03*
X216350000Y-133810000D03*
X216350000Y-131270000D03*
X216350000Y-128730000D03*
X216350000Y-126190000D03*
X216350000Y-123650000D03*
X216350000Y-121110000D03*
D11*
X196750000Y-73250000D03*
D12*
X203250000Y-73250000D03*
X196750000Y-77750000D03*
X203250000Y-77750000D03*
D13*
X219587500Y-95500000D03*
X221412500Y-95500000D03*
D14*
X175870000Y-106043000D03*
X175870000Y-108583000D03*
X175870000Y-111123000D03*
X175870000Y-113663000D03*
X175870000Y-116203000D03*
D15*
X175870000Y-118743000D03*
X175870000Y-121283000D03*
D14*
X175870000Y-123823000D03*
X175870000Y-128903000D03*
X175870000Y-131443000D03*
X175870000Y-133983000D03*
X175870000Y-136523000D03*
X175870000Y-139063000D03*
X175870000Y-141603000D03*
X224130000Y-141603000D03*
X224130000Y-139063000D03*
X224130000Y-136523000D03*
X224130000Y-133983000D03*
X224130000Y-131443000D03*
X224130000Y-128903000D03*
X224130000Y-126363000D03*
X224130000Y-123823000D03*
X224130000Y-119759000D03*
X224130000Y-117219000D03*
X224130000Y-114679000D03*
X224130000Y-112139000D03*
X224130000Y-109599000D03*
X224130000Y-107059000D03*
D15*
X224130000Y-104519000D03*
D14*
X224130000Y-101979000D03*
X224130000Y-99439000D03*
X224130000Y-96899000D03*
D16*
X180962500Y-116500000D03*
X183037500Y-116500000D03*
D10*
X196190000Y-85000000D03*
X198730000Y-85000000D03*
X201270000Y-85000000D03*
X203810000Y-85000000D03*
D13*
X177087500Y-75500000D03*
X178912500Y-75500000D03*
D17*
X187460000Y-138890000D03*
X188730000Y-138890000D03*
X190000000Y-138890000D03*
X191270000Y-138890000D03*
X192540000Y-138890000D03*
X193810000Y-138890000D03*
X195080000Y-138890000D03*
X187460000Y-121110000D03*
X188730000Y-121110000D03*
X190000000Y-121110000D03*
X191270000Y-121110000D03*
X192540000Y-121110000D03*
X193810000Y-121110000D03*
X195080000Y-121110000D03*
X196350000Y-121110000D03*
X197620000Y-121110000D03*
D13*
X206587500Y-75500000D03*
X208412500Y-75500000D03*
D18*
X206637500Y-80000000D03*
X208362500Y-80000000D03*
D13*
X191587500Y-75500000D03*
X193412500Y-75500000D03*
D18*
X191637500Y-80000000D03*
X193362500Y-80000000D03*
D19*
X208412500Y-71000000D03*
X206587500Y-71000000D03*
X178912500Y-71000000D03*
X177087500Y-71000000D03*
D11*
X211750000Y-73250000D03*
D12*
X218250000Y-73250000D03*
X211750000Y-77750000D03*
X218250000Y-77750000D03*
D13*
X219587500Y-100500000D03*
X221412500Y-100500000D03*
D19*
X193500000Y-71000000D03*
X191675000Y-71000000D03*
D18*
X177137500Y-80000000D03*
X178862500Y-80000000D03*
D11*
X181750000Y-73250000D03*
D12*
X188250000Y-73250000D03*
X181750000Y-77750000D03*
X188250000Y-77750000D03*
D20*
X222613500Y-127386500D03*
X217777000Y-122550000D03*
X177000000Y-81500000D03*
X184500000Y-115500000D03*
X190500000Y-122500000D03*
X199000000Y-88500000D03*
X184500000Y-117500000D03*
X190500000Y-137500000D03*
X185000000Y-126000000D03*
X189500000Y-137500000D03*
X187000000Y-134500000D03*
X184500000Y-116500000D03*
X189500000Y-122500000D03*
X190500000Y-71000000D03*
X189500000Y-134500000D03*
X187000000Y-126000000D03*
X179500000Y-116500000D03*
X176000000Y-71000000D03*
X218500000Y-95500000D03*
X218500000Y-100500000D03*
X179500000Y-115500000D03*
X195000000Y-88500000D03*
X185000000Y-134500000D03*
X205500000Y-71000000D03*
X189500000Y-126000000D03*
X179500000Y-117500000D03*
X214500000Y-117500000D03*
X212500000Y-117500000D03*
X191500000Y-81500000D03*
X206500000Y-81500000D03*
D21*
X217777000Y-122550000D02*
X222613500Y-127386500D01*
X177137500Y-80000000D02*
X177137500Y-81362500D01*
X177137500Y-75550000D02*
X177087500Y-75500000D01*
X177137500Y-81362500D02*
X177000000Y-81500000D01*
X177137500Y-80000000D02*
X177137500Y-75550000D01*
X194500000Y-80000000D02*
X196750000Y-77750000D01*
X183037500Y-116500000D02*
X183037500Y-116537500D01*
X178862500Y-80000000D02*
X179500000Y-80000000D01*
X179500000Y-80000000D02*
X181750000Y-77750000D01*
X184000000Y-117500000D02*
X184500000Y-117500000D01*
X184000000Y-115500000D02*
X184500000Y-115500000D01*
X183037500Y-116537500D02*
X184000000Y-117500000D01*
X193362500Y-80000000D02*
X194500000Y-80000000D01*
X209500000Y-80000000D02*
X211750000Y-77750000D01*
X183037500Y-116500000D02*
X183037500Y-116462500D01*
X208362500Y-80000000D02*
X209500000Y-80000000D01*
X183037500Y-116462500D02*
X184000000Y-115500000D01*
X183037500Y-116500000D02*
X184500000Y-116500000D01*
X191675000Y-71000000D02*
X190500000Y-71000000D01*
X180000000Y-117500000D02*
X179500000Y-117500000D01*
X180962500Y-116500000D02*
X180962500Y-116462500D01*
X180962500Y-116500000D02*
X180962500Y-116537500D01*
X177087500Y-71000000D02*
X176000000Y-71000000D01*
X180962500Y-116462500D02*
X180000000Y-115500000D01*
X219587500Y-100500000D02*
X218500000Y-100500000D01*
X219587500Y-95500000D02*
X218500000Y-95500000D01*
X180962500Y-116500000D02*
X179500000Y-116500000D01*
X180962500Y-116537500D02*
X180000000Y-117500000D01*
X206587500Y-71000000D02*
X205500000Y-71000000D01*
X180000000Y-115500000D02*
X179500000Y-115500000D01*
X221412500Y-101587500D02*
X218000000Y-105000000D01*
X220000000Y-98000000D02*
X209500000Y-98000000D01*
X221412500Y-98087500D02*
X221412500Y-99412500D01*
X213500000Y-128420000D02*
X213500000Y-117000000D01*
X213500000Y-117000000D02*
X214500000Y-116000000D01*
X201270000Y-89770000D02*
X201270000Y-85000000D01*
X216350000Y-131270000D02*
X213500000Y-128420000D01*
X193840000Y-116000000D02*
X214500000Y-116000000D01*
X188730000Y-121110000D02*
X193840000Y-116000000D01*
X221412500Y-100500000D02*
X221412500Y-99412500D01*
X224130000Y-96899000D02*
X222601000Y-96899000D01*
X221412500Y-100500000D02*
X221412500Y-101587500D01*
X209500000Y-98000000D02*
X201270000Y-89770000D01*
X218000000Y-112500000D02*
X218000000Y-105000000D01*
X222601000Y-96899000D02*
X221412500Y-98087500D01*
X214500000Y-116000000D02*
X218000000Y-112500000D01*
X221412500Y-99412500D02*
X220000000Y-98000000D01*
X194880000Y-117500000D02*
X191270000Y-121110000D01*
X218500000Y-92000000D02*
X221412500Y-94912500D01*
X222500000Y-95000000D02*
X225000000Y-95000000D01*
X225561000Y-99439000D02*
X224130000Y-99439000D01*
X221412500Y-94912500D02*
X221412500Y-95500000D01*
X203810000Y-85000000D02*
X203810000Y-87810000D01*
X221412500Y-95500000D02*
X222000000Y-95500000D01*
X226500000Y-96500000D02*
X226500000Y-98500000D01*
X215000000Y-117500000D02*
X218400000Y-114100000D01*
X215000000Y-124840000D02*
X215000000Y-117500000D01*
X203810000Y-87810000D02*
X208000000Y-92000000D01*
X226500000Y-98500000D02*
X225561000Y-99439000D01*
X222000000Y-95500000D02*
X222500000Y-95000000D01*
X216350000Y-126190000D02*
X215000000Y-124840000D01*
X225000000Y-95000000D02*
X226500000Y-96500000D01*
X208000000Y-92000000D02*
X218500000Y-92000000D01*
X215000000Y-117500000D02*
X214500000Y-117500000D01*
X218400000Y-105169000D02*
X224130000Y-99439000D01*
X218400000Y-114100000D02*
X218400000Y-105169000D01*
X212500000Y-117500000D02*
X194880000Y-117500000D01*
X191637500Y-80000000D02*
X191637500Y-81362500D01*
X191637500Y-80000000D02*
X191637500Y-75550000D01*
X191637500Y-75550000D02*
X191587500Y-75500000D01*
X191637500Y-81362500D02*
X191500000Y-81500000D01*
X191500000Y-80137500D02*
X191637500Y-80000000D01*
X192540000Y-138890000D02*
X193930000Y-137500000D01*
X210500001Y-137500000D02*
X215630001Y-132370000D01*
X225293600Y-127206400D02*
X225293600Y-124986600D01*
X215630001Y-132370000D02*
X219017421Y-132370000D01*
X223860821Y-127526600D02*
X224973400Y-127526600D01*
X193930000Y-137500000D02*
X210500001Y-137500000D01*
X225293600Y-124986600D02*
X224130000Y-123823000D01*
X224973400Y-127526600D02*
X225293600Y-127206400D01*
X219017421Y-132370000D02*
X223860821Y-127526600D01*
X218877000Y-121110000D02*
X224130000Y-126363000D01*
X216350000Y-121110000D02*
X218877000Y-121110000D01*
X206500000Y-81500000D02*
X206637500Y-81362500D01*
X206637500Y-80000000D02*
X206637500Y-75550000D01*
X206637500Y-75550000D02*
X206587500Y-75500000D01*
X206637500Y-81362500D02*
X206637500Y-80000000D01*
X178912500Y-75500000D02*
X179500000Y-75500000D01*
X179500000Y-75500000D02*
X181750000Y-73250000D01*
X179500000Y-71000000D02*
X181750000Y-73250000D01*
X178912500Y-71000000D02*
X179500000Y-71000000D01*
X181750000Y-73250000D02*
X188250000Y-73250000D01*
X194500000Y-75500000D02*
X193412500Y-75500000D01*
X203250000Y-73250000D02*
X196750000Y-73250000D01*
X196750000Y-73250000D02*
X194500000Y-71000000D01*
X196750000Y-73250000D02*
X194500000Y-75500000D01*
X194500000Y-71000000D02*
X193500000Y-71000000D01*
X208412500Y-75500000D02*
X209500000Y-75500000D01*
X208412500Y-71000000D02*
X209500000Y-71000000D01*
X209500000Y-71000000D02*
X211750000Y-73250000D01*
X211750000Y-73250000D02*
X218250000Y-73250000D01*
X209500000Y-75500000D02*
X211750000Y-73250000D01*
M02*
