G04 #@! TF.GenerationSoftware,KiCad,Pcbnew,8.0.6*
G04 #@! TF.CreationDate,2025-12-03T00:04:18-05:00*
G04 #@! TF.ProjectId,dead_reckoning_shield,64656164-5f72-4656-936b-6f6e696e675f,rev?*
G04 #@! TF.SameCoordinates,Original*
G04 #@! TF.FileFunction,Legend,Bot*
G04 #@! TF.FilePolarity,Positive*
%FSLAX46Y46*%
G04 Gerber Fmt 4.6, Leading zero omitted, Abs format (unit mm)*
G04 Created by KiCad (PCBNEW 8.0.6) date 2025-12-03 00:04:18*
%MOMM*%
%LPD*%
G01*
G04 APERTURE LIST*
G04 Aperture macros list*
%AMRoundRect*
0 Rectangle with rounded corners*
0 $1 Rounding radius*
0 $2 $3 $4 $5 $6 $7 $8 $9 X,Y pos of 4 corners*
0 Add a 4 corners polygon primitive as box body*
4,1,4,$2,$3,$4,$5,$6,$7,$8,$9,$2,$3,0*
0 Add four circle primitives for the rounded corners*
1,1,$1+$1,$2,$3*
1,1,$1+$1,$4,$5*
1,1,$1+$1,$6,$7*
1,1,$1+$1,$8,$9*
0 Add four rect primitives between the rounded corners*
20,1,$1+$1,$2,$3,$4,$5,0*
20,1,$1+$1,$4,$5,$6,$7,0*
20,1,$1+$1,$6,$7,$8,$9,0*
20,1,$1+$1,$8,$9,$2,$3,0*%
G04 Aperture macros list end*
%ADD10C,0.150000*%
%ADD11C,0.120000*%
%ADD12C,1.600000*%
%ADD13RoundRect,0.102000X-0.749000X-0.749000X0.749000X-0.749000X0.749000X0.749000X-0.749000X0.749000X0*%
%ADD14C,1.702000*%
%ADD15O,1.727200X1.727200*%
%ADD16R,1.727200X1.727200*%
%ADD17C,1.000000*%
%ADD18RoundRect,0.237500X-0.300000X-0.237500X0.300000X-0.237500X0.300000X0.237500X-0.300000X0.237500X0*%
%ADD19RoundRect,0.237500X0.300000X0.237500X-0.300000X0.237500X-0.300000X-0.237500X0.300000X-0.237500X0*%
%ADD20RoundRect,0.237500X0.237500X-0.300000X0.237500X0.300000X-0.237500X0.300000X-0.237500X-0.300000X0*%
%ADD21RoundRect,0.237500X0.250000X0.237500X-0.250000X0.237500X-0.250000X-0.237500X0.250000X-0.237500X0*%
%ADD22RoundRect,0.237500X-0.250000X-0.237500X0.250000X-0.237500X0.250000X0.237500X-0.250000X0.237500X0*%
G04 APERTURE END LIST*
D10*
X186166666Y-137789580D02*
X186214285Y-137837200D01*
X186214285Y-137837200D02*
X186357142Y-137884819D01*
X186357142Y-137884819D02*
X186452380Y-137884819D01*
X186452380Y-137884819D02*
X186595237Y-137837200D01*
X186595237Y-137837200D02*
X186690475Y-137741961D01*
X186690475Y-137741961D02*
X186738094Y-137646723D01*
X186738094Y-137646723D02*
X186785713Y-137456247D01*
X186785713Y-137456247D02*
X186785713Y-137313390D01*
X186785713Y-137313390D02*
X186738094Y-137122914D01*
X186738094Y-137122914D02*
X186690475Y-137027676D01*
X186690475Y-137027676D02*
X186595237Y-136932438D01*
X186595237Y-136932438D02*
X186452380Y-136884819D01*
X186452380Y-136884819D02*
X186357142Y-136884819D01*
X186357142Y-136884819D02*
X186214285Y-136932438D01*
X186214285Y-136932438D02*
X186166666Y-136980057D01*
X185214285Y-137884819D02*
X185785713Y-137884819D01*
X185499999Y-137884819D02*
X185499999Y-136884819D01*
X185499999Y-136884819D02*
X185595237Y-137027676D01*
X185595237Y-137027676D02*
X185690475Y-137122914D01*
X185690475Y-137122914D02*
X185785713Y-137170533D01*
X186166666Y-123429580D02*
X186214285Y-123477200D01*
X186214285Y-123477200D02*
X186357142Y-123524819D01*
X186357142Y-123524819D02*
X186452380Y-123524819D01*
X186452380Y-123524819D02*
X186595237Y-123477200D01*
X186595237Y-123477200D02*
X186690475Y-123381961D01*
X186690475Y-123381961D02*
X186738094Y-123286723D01*
X186738094Y-123286723D02*
X186785713Y-123096247D01*
X186785713Y-123096247D02*
X186785713Y-122953390D01*
X186785713Y-122953390D02*
X186738094Y-122762914D01*
X186738094Y-122762914D02*
X186690475Y-122667676D01*
X186690475Y-122667676D02*
X186595237Y-122572438D01*
X186595237Y-122572438D02*
X186452380Y-122524819D01*
X186452380Y-122524819D02*
X186357142Y-122524819D01*
X186357142Y-122524819D02*
X186214285Y-122572438D01*
X186214285Y-122572438D02*
X186166666Y-122620057D01*
X185785713Y-122620057D02*
X185738094Y-122572438D01*
X185738094Y-122572438D02*
X185642856Y-122524819D01*
X185642856Y-122524819D02*
X185404761Y-122524819D01*
X185404761Y-122524819D02*
X185309523Y-122572438D01*
X185309523Y-122572438D02*
X185261904Y-122620057D01*
X185261904Y-122620057D02*
X185214285Y-122715295D01*
X185214285Y-122715295D02*
X185214285Y-122810533D01*
X185214285Y-122810533D02*
X185261904Y-122953390D01*
X185261904Y-122953390D02*
X185833332Y-123524819D01*
X185833332Y-123524819D02*
X185214285Y-123524819D01*
X197166666Y-90289580D02*
X197214285Y-90337200D01*
X197214285Y-90337200D02*
X197357142Y-90384819D01*
X197357142Y-90384819D02*
X197452380Y-90384819D01*
X197452380Y-90384819D02*
X197595237Y-90337200D01*
X197595237Y-90337200D02*
X197690475Y-90241961D01*
X197690475Y-90241961D02*
X197738094Y-90146723D01*
X197738094Y-90146723D02*
X197785713Y-89956247D01*
X197785713Y-89956247D02*
X197785713Y-89813390D01*
X197785713Y-89813390D02*
X197738094Y-89622914D01*
X197738094Y-89622914D02*
X197690475Y-89527676D01*
X197690475Y-89527676D02*
X197595237Y-89432438D01*
X197595237Y-89432438D02*
X197452380Y-89384819D01*
X197452380Y-89384819D02*
X197357142Y-89384819D01*
X197357142Y-89384819D02*
X197214285Y-89432438D01*
X197214285Y-89432438D02*
X197166666Y-89480057D01*
X196833332Y-89384819D02*
X196214285Y-89384819D01*
X196214285Y-89384819D02*
X196547618Y-89765771D01*
X196547618Y-89765771D02*
X196404761Y-89765771D01*
X196404761Y-89765771D02*
X196309523Y-89813390D01*
X196309523Y-89813390D02*
X196261904Y-89861009D01*
X196261904Y-89861009D02*
X196214285Y-89956247D01*
X196214285Y-89956247D02*
X196214285Y-90194342D01*
X196214285Y-90194342D02*
X196261904Y-90289580D01*
X196261904Y-90289580D02*
X196309523Y-90337200D01*
X196309523Y-90337200D02*
X196404761Y-90384819D01*
X196404761Y-90384819D02*
X196690475Y-90384819D01*
X196690475Y-90384819D02*
X196785713Y-90337200D01*
X196785713Y-90337200D02*
X196833332Y-90289580D01*
X214789580Y-137333333D02*
X214837200Y-137285714D01*
X214837200Y-137285714D02*
X214884819Y-137142857D01*
X214884819Y-137142857D02*
X214884819Y-137047619D01*
X214884819Y-137047619D02*
X214837200Y-136904762D01*
X214837200Y-136904762D02*
X214741961Y-136809524D01*
X214741961Y-136809524D02*
X214646723Y-136761905D01*
X214646723Y-136761905D02*
X214456247Y-136714286D01*
X214456247Y-136714286D02*
X214313390Y-136714286D01*
X214313390Y-136714286D02*
X214122914Y-136761905D01*
X214122914Y-136761905D02*
X214027676Y-136809524D01*
X214027676Y-136809524D02*
X213932438Y-136904762D01*
X213932438Y-136904762D02*
X213884819Y-137047619D01*
X213884819Y-137047619D02*
X213884819Y-137142857D01*
X213884819Y-137142857D02*
X213932438Y-137285714D01*
X213932438Y-137285714D02*
X213980057Y-137333333D01*
X214218152Y-138190476D02*
X214884819Y-138190476D01*
X213837200Y-137952381D02*
X214551485Y-137714286D01*
X214551485Y-137714286D02*
X214551485Y-138333333D01*
X190416666Y-123524819D02*
X190749999Y-123048628D01*
X190988094Y-123524819D02*
X190988094Y-122524819D01*
X190988094Y-122524819D02*
X190607142Y-122524819D01*
X190607142Y-122524819D02*
X190511904Y-122572438D01*
X190511904Y-122572438D02*
X190464285Y-122620057D01*
X190464285Y-122620057D02*
X190416666Y-122715295D01*
X190416666Y-122715295D02*
X190416666Y-122858152D01*
X190416666Y-122858152D02*
X190464285Y-122953390D01*
X190464285Y-122953390D02*
X190511904Y-123001009D01*
X190511904Y-123001009D02*
X190607142Y-123048628D01*
X190607142Y-123048628D02*
X190988094Y-123048628D01*
X189559523Y-122858152D02*
X189559523Y-123524819D01*
X189797618Y-122477200D02*
X190035713Y-123191485D01*
X190035713Y-123191485D02*
X189416666Y-123191485D01*
X190416666Y-137884819D02*
X190749999Y-137408628D01*
X190988094Y-137884819D02*
X190988094Y-136884819D01*
X190988094Y-136884819D02*
X190607142Y-136884819D01*
X190607142Y-136884819D02*
X190511904Y-136932438D01*
X190511904Y-136932438D02*
X190464285Y-136980057D01*
X190464285Y-136980057D02*
X190416666Y-137075295D01*
X190416666Y-137075295D02*
X190416666Y-137218152D01*
X190416666Y-137218152D02*
X190464285Y-137313390D01*
X190464285Y-137313390D02*
X190511904Y-137361009D01*
X190511904Y-137361009D02*
X190607142Y-137408628D01*
X190607142Y-137408628D02*
X190988094Y-137408628D01*
X189464285Y-137884819D02*
X190035713Y-137884819D01*
X189749999Y-137884819D02*
X189749999Y-136884819D01*
X189749999Y-136884819D02*
X189845237Y-137027676D01*
X189845237Y-137027676D02*
X189940475Y-137122914D01*
X189940475Y-137122914D02*
X190035713Y-137170533D01*
D11*
X186146267Y-135490000D02*
X185853733Y-135490000D01*
X186146267Y-136510000D02*
X185853733Y-136510000D01*
X185853733Y-123990000D02*
X186146267Y-123990000D01*
X185853733Y-125010000D02*
X186146267Y-125010000D01*
X197146267Y-87990000D02*
X196853733Y-87990000D01*
X197146267Y-89010000D02*
X196853733Y-89010000D01*
X212490000Y-137353733D02*
X212490000Y-137646267D01*
X213510000Y-137353733D02*
X213510000Y-137646267D01*
X189995276Y-123977500D02*
X190504724Y-123977500D01*
X189995276Y-125022500D02*
X190504724Y-125022500D01*
X190504724Y-135477500D02*
X189995276Y-135477500D01*
X190504724Y-136522500D02*
X189995276Y-136522500D01*
%LPC*%
D12*
X216350000Y-138890000D03*
X216350000Y-136350000D03*
X216350000Y-133810000D03*
X216350000Y-131270000D03*
X216350000Y-128730000D03*
X216350000Y-126190000D03*
X216350000Y-123650000D03*
X216350000Y-121110000D03*
D13*
X196750000Y-73250000D03*
D14*
X203250000Y-73250000D03*
X196750000Y-77750000D03*
X203250000Y-77750000D03*
D15*
X175870000Y-106043000D03*
X175870000Y-108583000D03*
X175870000Y-111123000D03*
X175870000Y-113663000D03*
X175870000Y-116203000D03*
D16*
X175870000Y-118743000D03*
X175870000Y-121283000D03*
D15*
X175870000Y-123823000D03*
X175870000Y-128903000D03*
X175870000Y-131443000D03*
X175870000Y-133983000D03*
X175870000Y-136523000D03*
X175870000Y-139063000D03*
X175870000Y-141603000D03*
X224130000Y-141603000D03*
X224130000Y-139063000D03*
X224130000Y-136523000D03*
X224130000Y-133983000D03*
X224130000Y-131443000D03*
X224130000Y-128903000D03*
X224130000Y-126363000D03*
X224130000Y-123823000D03*
X224130000Y-119759000D03*
X224130000Y-117219000D03*
X224130000Y-114679000D03*
X224130000Y-112139000D03*
X224130000Y-109599000D03*
X224130000Y-107059000D03*
D16*
X224130000Y-104519000D03*
D15*
X224130000Y-101979000D03*
X224130000Y-99439000D03*
X224130000Y-96899000D03*
D12*
X196190000Y-85000000D03*
X198730000Y-85000000D03*
X201270000Y-85000000D03*
X203810000Y-85000000D03*
D17*
X187460000Y-138890000D03*
X188730000Y-138890000D03*
X190000000Y-138890000D03*
X191270000Y-138890000D03*
X192540000Y-138890000D03*
X193810000Y-138890000D03*
X195080000Y-138890000D03*
X187460000Y-121110000D03*
X188730000Y-121110000D03*
X190000000Y-121110000D03*
X191270000Y-121110000D03*
X192540000Y-121110000D03*
X193810000Y-121110000D03*
X195080000Y-121110000D03*
X196350000Y-121110000D03*
X197620000Y-121110000D03*
D13*
X211750000Y-73250000D03*
D14*
X218250000Y-73250000D03*
X211750000Y-77750000D03*
X218250000Y-77750000D03*
D13*
X181750000Y-73250000D03*
D14*
X188250000Y-73250000D03*
X181750000Y-77750000D03*
X188250000Y-77750000D03*
D18*
X185137500Y-136000000D03*
X186862500Y-136000000D03*
D19*
X186862500Y-124500000D03*
X185137500Y-124500000D03*
D18*
X196137500Y-88500000D03*
X197862500Y-88500000D03*
D20*
X213000000Y-138362500D03*
X213000000Y-136637500D03*
D21*
X191162500Y-124500000D03*
X189337500Y-124500000D03*
D22*
X189337500Y-136000000D03*
X191162500Y-136000000D03*
%LPD*%
M02*
